# xmcd
#
# Track frame offsets: 
#        150
#        11527
#        24062
#        36005
#        48947
#        61180
#        72850
#        84965
#        98347
#        108667
#        120542
#        130820
#        143780
#        156767
#        168902
#        181032
#        193357
#        206327
#        221652
#        230817
#        242730
#        254815
#        264640
#        275602
#        285690
#        297105
#
# Disc length: 4121 seconds
#
# Revision: 0
# Processed by: cddbd v1.5.2PL0 Copyright (c) Steve Scherf et al.
# Submitted via: ExactAudioCopy v0.95b4
#
DISCID=7310171a
DTITLE=Bob Wills and His Texas Playboys - Legends of Country Music {Di
DTITLE=sc 4}
DYEAR=2006
DGENRE=Western Swing
TTITLE0=Sugar Moon
TTITLE1=Brain Cloudy Blues
TTITLE2=Bob Wills Boogie
TTITLE3=Fat Boy Rag
TTITLE4=The Kind Of Love I Can't Forget
TTITLE5=Hometown Stomp
TTITLE6=Misery
TTITLE7=Deep Water
TTITLE8=Bubbles In My Beer
TTITLE9=Papa's Jumpin'
TTITLE10=Sally Goodin'
TTITLE11=Still Water Runs The Deepest
TTITLE12=Blues For Dixie
TTITLE13=Keeper Of My Heart
TTITLE14=Ida Red Likes The Boogie
TTITLE15=Boot Heel Drag
TTITLE16=Faded Love
TTITLE17=St. Louis Blues
TTITLE18=Cadillac In Model 'A'
TTITLE19=Heart To Heart Talk
TTITLE20=Wabash Blues
TTITLE21=A Big Ball In Cowtown (We'll Dance Around)
TTITLE22=Pan Handle Rag
TTITLE23=Blue Bonnet Lane
TTITLE24=What Makes Bob Holler
TTITLE25=Goin' Away Party
EXTD=
EXTT0=
EXTT1=
EXTT2=
EXTT3=
EXTT4=
EXTT5=
EXTT6=
EXTT7=
EXTT8=
EXTT9=
EXTT10=
EXTT11=
EXTT12=
EXTT13=
EXTT14=
EXTT15=
EXTT16=
EXTT17=
EXTT18=
EXTT19=
EXTT20=
EXTT21=
EXTT22=
EXTT23=
EXTT24=
EXTT25=
PLAYORDER=
